Coordinates
version=1
nRows=37
nColumns=34
inDegrees=no

Units are S.I. units (second, meters, Newtons, ...)
If the header above contains a line with 'inDegrees', this indicates whether rotational values are in degrees (yes) or radians (no).

endheader
time	pelvis_tilt	pelvis_list	pelvis_rotation	pelvis_tx	pelvis_ty	pelvis_tz	hip_flexion_r	hip_adduction_r	hip_rotation_r	knee_angle_r	ankle_angle_r	subtalar_angle_r	mtp_angle_r	hip_flexion_l	hip_adduction_l	hip_rotation_l	knee_angle_l	ankle_angle_l	subtalar_angle_l	mtp_angle_l	lumbar_extension	lumbar_bending	lumbar_rotation	arm_flex_r	arm_add_r	arm_rot_r	elbow_flex_r	pro_sup_r	arm_flex_l	arm_add_l	arm_rot_l	elbow_flex_l	pro_sup_l
1.22	-0.0277479	0.0547025	-0.197556	1.14751	1.04704	-0.311403	0.446475	-0.0139102	-0.132075	0.296299	0.0465261	-0.0191783	-0.0242985	-0.195963	0.0518046	-0.415981	0.0411202	0.163937	0.287878	-0.029893	-0.266484	-0.496673	-0.113237	0.00469084	-0.16539	0.126345	0.755314	2.07411	0.358057	-0.435117	0.0016738	0.988027	2.0683
1.23	-0.0275046	0.0552026	-0.195807	1.15699	1.04552	-0.311283	0.441193	-0.00750766	-0.131513	0.253033	0.0565107	0.0210347	-0.0243078	-0.206738	0.0536452	-0.419669	0.0405778	0.164662	0.298538	-0.0299219	-0.269671	-0.491471	-0.112621	0.00609836	-0.165547	0.125399	0.751874	2.0741	0.355514	-0.432603	0.00479195	0.993723	2.0691
1.24	-0.027324	0.0558846	-0.193713	1.16662	1.04393	-0.311181	0.43575	-0.0017449	-0.13156	0.211427	0.0671543	0.0632073	-0.024317	-0.217224	0.0553982	-0.423619	0.0408987	0.165477	0.30986	-0.0299508	-0.272877	-0.485918	-0.11206	0.00735724	-0.165754	0.124028	0.748679	2.07409	0.351906	-0.429827	0.00753425	0.998561	2.0697
1.25	-0.0272023	0.0568902	-0.191347	1.17639	1.04226	-0.311104	0.430541	0.00313655	-0.131992	0.172613	0.078352	0.106147	-0.0243263	-0.227317	0.0571947	-0.42787	0.0422533	0.166475	0.32179	-0.0299797	-0.27605	-0.480163	-0.1115	0.00845424	-0.166038	0.122172	0.745763	2.07408	0.34729	-0.426789	0.0100241	1.00249	2.06997
1.26	-0.0271024	0.0583364	-0.188798	1.18632	1.04053	-0.311052	0.425938	0.00691739	-0.132449	0.137832	0.0899561	0.148248	-0.0243356	-0.236959	0.059148	-0.432436	0.0447906	0.167729	0.334243	-0.0300086	-0.279176	-0.474333	-0.110873	0.00939313	-0.166432	0.119792	0.743162	2.07407	0.34174	-0.423487	0.0123871	1.00545	2.06983
1.27	-0.0269462	0.0602797	-0.18616	1.19638	1.03873	-0.311029	0.422229	0.00944768	-0.132463	0.108313	0.101731	0.187567	-0.0243449	-0.246166	0.0613128	-0.437275	0.0486251	0.169275	0.347067	-0.0300376	-0.282294	-0.468494	-0.110105	0.0101979	-0.166974	0.116872	0.740906	2.07405	0.335343	-0.419924	0.0147418	1.00739	2.06922
1.28	-0.0266067	0.0626733	-0.183515	1.20659	1.03688	-0.31103	0.41955	0.0106979	-0.131527	0.0851331	0.113308	0.221977	-0.0243542	-0.255052	0.0636341	-0.442294	0.0538383	0.171116	0.360066	-0.0300665	-0.285517	-0.462611	-0.109125	0.0109131	-0.16771	0.113431	0.739014	2.07404	0.328191	-0.416105	0.0171941	1.00826	2.06817
1.29	-0.0259014	0.0653281	-0.180913	1.21696	1.035	-0.311052	0.417825	0.0108047	-0.129185	0.0690639	0.124148	0.249404	-0.0243635	-0.263831	0.0658929	-0.447402	0.0605004	0.173235	0.373085	-0.0300955	-0.289041	-0.456509	-0.107874	0.0116009	-0.168687	0.109525	0.737489	2.07403	0.320375	-0.412044	0.0198377	1.00798	2.06679
1.3	-0.0245909	0.067887	-0.178359	1.22748	1.03311	-0.311085	0.416736	0.0100994	-0.125156	0.0604561	0.133543	0.26809	-0.0243728	-0.272808	0.0676582	-0.452619	0.0687143	0.175629	0.38615	-0.0301245	-0.293143	-0.449849	-0.106308	0.0123366	-0.169958	0.105247	0.736306	2.07402	0.311982	-0.407756	0.022758	1.00648	2.06519
1.31	-0.0223944	0.0698412	-0.175801	1.23819	1.03127	-0.311112	0.415751	0.00910043	-0.119391	0.0591804	0.140645	0.276801	-0.0243821	-0.282338	0.0682942	-0.4581	0.0786348	0.178304	0.399491	-0.0301535	-0.298155	-0.442138	-0.104399	0.0132032	-0.171567	0.100721	0.735404	2.074	0.303088	-0.403255	0.0260351	1.00364	2.06352
1.32	-0.0190405	0.070594	-0.17315	1.24909	1.02954	-0.31112	0.414222	0.00845476	-0.112087	0.0646572	0.14456	0.274958	-0.0243914	-0.292759	0.0670362	-0.464072	0.0904583	0.181231	0.413404	-0.0301825	-0.304405	-0.4328	-0.102126	0.0142854	-0.173548	0.0960905	0.734674	2.07399	0.293754	-0.398557	0.0297434	0.99935	2.0619
1.33	-0.0143202	0.0695571	-0.170295	1.26019	1.02795	-0.311096	0.411525	0.00884228	-0.103655	0.0759677	0.144483	0.262685	-0.0244007	-0.30432	0.0631194	-0.47066	0.104379	0.184275	0.427999	-0.0302116	-0.312142	-0.421263	-0.0994702	0.015666	-0.175911	0.0915041	0.733957	2.07398	0.284021	-0.39368	0.0339457	0.993504	2.06049
1.34	-0.00813477	0.0662509	-0.167126	1.2715	1.02656	-0.311028	0.407198	0.0108708	-0.0946644	0.0920204	0.139884	0.24081	-0.02441	-0.317104	0.0559021	-0.477796	0.120567	0.187149	0.443027	-0.0302406	-0.321482	-0.407058	-0.0964149	0.0174207	-0.178633	0.0870966	0.733046	2.07397	0.273907	-0.38864	0.0386887	0.985997	2.05944
1.35	-0.000530872	0.0603929	-0.163562	1.28302	1.02539	-0.31091	0.401047	0.0149807	-0.0857682	0.111728	0.130671	0.210779	-0.0244193	-0.330975	0.044966	-0.485181	0.139171	0.1894	0.457834	-0.0302696	-0.332366	-0.389898	-0.0929425	0.0196138	-0.181655	0.0829687	0.731701	2.07397	0.263401	-0.383458	0.0439996	0.976762	2.05889
1.36	0.00828355	0.0519379	-0.159559	1.29473	1.02445	-0.310739	0.393193	0.0213774	-0.0775862	0.13415	0.117293	0.174481	-0.0244286	-0.345529	0.0301773	-0.492349	0.160347	0.19044	0.471448	-0.0302987	-0.344545	-0.369739	-0.0890395	0.0222915	-0.184879	0.0791644	0.729675	2.07397	0.252467	-0.378156	0.0498862	0.965787	2.05883
1.37	0.0179427	0.0410972	-0.155124	1.30659	1.02373	-0.310517	0.384083	0.0299764	-0.0706318	0.15858	0.100772	0.134101	-0.0244379	-0.360085	0.011736	-0.498675	0.184272	0.189576	0.482625	-0.0303278	-0.357588	-0.346824	-0.0847102	0.0254734	-0.188178	0.0756531	0.72675	2.07397	0.241047	-0.372757	0.0563293	0.953125	2.05917
1.38	0.0279465	0.0283333	-0.150314	1.31858	1.02322	-0.310246	0.374417	0.0404042	-0.0652584	0.184555	0.0826166	0.0919418	-0.0244472	-0.373701	-0.00983626	-0.503421	0.211155	0.186073	0.489976	-0.0303569	-0.370903	-0.321662	-0.0799914	0.0291453	-0.191398	0.0723186	0.722775	2.07398	0.22907	-0.367282	0.0632653	0.938888	2.05977
1.39	0.0377004	0.0143177	-0.14522	1.33065	1.02287	-0.309934	0.365039	0.0520384	-0.0616611	0.211783	0.0646356	0.0502805	-0.0244565	-0.385241	-0.0337438	-0.505767	0.241237	0.179211	0.492063	-0.030386	-0.383803	-0.294978	-0.0749655	0.0332542	-0.194378	0.0689586	0.717702	2.07398	0.216466	-0.361747	0.0705763	0.923241	2.06049
1.4	0.0465822	-0.000175776	-0.139936	1.34275	1.02266	-0.309595	0.356763	0.0641184	-0.0598906	0.240004	0.0486658	0.0111738	-0.0244658	-0.393477	-0.0590487	-0.504918	0.274788	0.168362	0.487614	-0.0304151	-0.395582	-0.267591	-0.0697634	0.0377084	-0.196969	0.0653003	0.71161	2.07397	0.203177	-0.356162	0.0780846	0.906383	2.06129
1.41	0.0540161	-0.0143978	-0.13453	1.35487	1.02253	-0.309242	0.350217	0.0758724	-0.059907	0.268851	0.0362943	-0.0236883	-0.0244751	-0.397219	-0.0848134	-0.500195	0.312093	0.15305	0.475698	-0.0304442	-0.405607	-0.240282	-0.0645628	0.042383	-0.199058	0.0610313	0.704718	2.07395	0.189174	-0.350519	0.0855579	0.888528	2.0622
1.42	0.0595357	-0.0277372	-0.129008	1.36696	1.02245	-0.308894	0.345735	0.0866301	-0.0616448	0.297774	0.0286441	-0.0530804	-0.0244844	-0.395439	-0.110217	-0.491084	0.353393	0.13298	0.455817	-0.0304734	-0.413392	-0.213675	-0.0595758	0.0471313	-0.200587	0.0558452	0.697375	2.0739	0.174467	-0.344795	0.092724	0.869902	2.06333
1.43	0.0628365	-0.0397978	-0.123298	1.37899	1.0224	-0.308573	0.343329	0.095927	-0.0650416	0.326027	0.026234	-0.0763334	-0.0244937	-0.387369	-0.134654	-0.477302	0.398842	0.108063	0.427997	-0.0305025	-0.418637	-0.188152	-0.0550201	0.0517999	-0.201567	0.0494926	0.690026	2.07383	0.159113	-0.338953	0.0992943	0.850729	2.06483
1.44	0.0637994	-0.0504303	-0.117261	1.39098	1.02234	-0.308298	0.342722	0.103554	-0.0700479	0.352748	0.0289645	-0.0933507	-0.024503	-0.372571	-0.157771	-0.45883	0.448445	0.0784134	0.392785	-0.0305317	-0.421254	-0.163819	-0.0510889	0.0562456	-0.202081	0.0418295	0.683168	2.07374	0.143216	-0.332952	0.104993	0.831239	2.06682
1.45	0.0624923	-0.0597192	-0.110712	1.40287	1.02228	-0.308106	0.343425	0.109553	-0.076616	0.377086	0.0362115	-0.104552	-0.0245123	-0.35098	-0.179446	-0.435906	0.502002	0.0443423	0.351195	-0.0305608	-0.421353	-0.140541	-0.0479217	0.0603505	-0.202277	0.0328528	0.677284	2.07363	0.126924	-0.326754	0.109588	0.811671	2.06938
1.46	0.0591606	-0.0679279	-0.103459	1.41464	1.02222	-0.308025	0.344828	0.114168	-0.084673	0.398326	0.0469935	-0.110755	-0.0245216	-0.322911	-0.199716	-0.409008	0.559066	0.0063569	0.304603	-0.03059	-0.419236	-0.118021	-0.04558	0.0640356	-0.20235	0.0227136	0.672791	2.07352	0.110418	-0.320341	0.11292	0.79228	2.07253
1.47	0.0541987	-0.0754152	-0.095344	1.42628	1.02218	-0.308078	0.346286	0.117764	-0.0940861	0.415993	0.0601637	-0.113022	-0.0245309	-0.289034	-0.21868	-0.37881	0.618931	-0.034822	0.25462	-0.0306192	-0.415361	-0.0959046	-0.0440288	0.0672675	-0.202523	0.011703	0.669989	2.07343	0.0939023	-0.313724	0.11493	0.773342	2.07612
1.48	0.0481124	-0.082543	-0.0862847	1.43775	1.02218	-0.308279	0.347181	0.12074	-0.104638	0.429891	0.0745888	-0.112494	-0.0245402	-0.250323	-0.236412	-0.346128	0.680656	-0.0782267	0.20296	-0.0306484	-0.410295	-0.0738869	-0.0431289	0.0700587	-0.203018	0.000215133	0.669029	2.0734	0.0775893	-0.306951	0.115675	0.755144	2.07995
1.49	0.0414754	-0.089591	-0.0762998	1.44905	1.02225	-0.308631	0.346963	0.123457	-0.116021	0.440085	0.0892886	-0.110242	-0.0245495	-0.207973	-0.252907	-0.311865	0.743122	-0.122607	0.151331	-0.0306776	-0.404659	-0.0517832	-0.0426435	0.072461	-0.204033	-0.0113059	0.669908	2.07347	0.0616838	-0.300112	0.115332	0.737973	2.08369
1.5	0.0348706	-0.0967077	-0.0655223	1.46016	1.02241	-0.309126	0.34518	0.126189	-0.127857	0.446845	0.103522	-0.107148	-0.0245588	-0.163295	-0.268057	-0.276945	0.805124	-0.166418	0.101352	-0.0307068	-0.399068	-0.0295739	-0.0422587	0.0745529	-0.205717	-0.0224237	0.672478	2.07366	0.0463672	-0.293341	0.114194	0.7221	2.08701
1.51	0.0288235	-0.103897	-0.0541914	1.47108	1.02272	-0.309747	0.341499	0.129088	-0.139722	0.45057	0.116819	-0.103836	-0.0245681	-0.117608	-0.281665	-0.242267	0.865466	-0.207867	0.0544893	-0.0307361	-0.394061	-0.00741578	-0.0416147	0.076425	-0.208158	-0.0327624	0.676472	2.07399	0.0317824	-0.286801	0.112629	0.707747	2.08966
1.52	0.0237438	-0.11103	-0.0426339	1.48182	1.02318	-0.310465	0.335722	0.132186	-0.15118	0.451713	0.128963	-0.100661	-0.0245774	-0.0721223	-0.293473	-0.208659	0.923059	-0.245029	0.0120112	-0.0307653	-0.390047	0.0143774	-0.0403399	0.0781629	-0.211372	-0.0420447	0.68155	2.07444	0.0180204	-0.280679	0.111045	0.695077	2.09153
1.53	0.019884	-0.117869	-0.031237	1.49238	1.02382	-0.311241	0.327799	0.135407	-0.161809	0.450729	0.139941	-0.0977506	-0.0245867	-0.027861	-0.303214	-0.176854	0.976983	-0.276038	-0.0250482	-0.0307945	-0.387266	0.0353777	-0.0380836	0.0798347	-0.215307	-0.0501112	0.687341	2.07496	0.00511224	-0.275165	0.109848	0.684179	2.09264
1.54	0.0173195	-0.124134	-0.0204137	1.50277	1.02464	-0.31203	0.317821	0.138602	-0.171225	0.448033	0.149875	-0.0950621	-0.024596	0.0143951	-0.310649	-0.147476	1.02653	-0.299305	-0.0559247	-0.0308237	-0.385775	0.0550902	-0.0345437	0.081482	-0.21985	-0.0569183	0.693479	2.07539	-0.00697251	-0.270438	0.109402	0.675073	2.09312
1.55	0.0159667	-0.129504	-0.0105726	1.51301	1.02563	-0.312789	0.305985	0.141585	-0.179093	0.443979	0.15896	-0.0924578	-0.0246053	0.0541095	-0.315614	-0.121038	1.07118	-0.313719	-0.0801477	-0.030853	-0.385483	0.0730269	-0.029487	0.0831188	-0.224846	-0.0625168	0.699643	2.07554	-0.0183207	-0.266653	0.109991	0.667725	2.09311
1.56	0.0156253	-0.133685	-0.00207795	1.52314	1.02679	-0.313475	0.292554	0.144172	-0.185148	0.438851	0.167402	-0.0897651	-0.0246146	0.0909601	-0.318032	-0.097943	1.11062	-0.318752	-0.0975379	-0.0308822	-0.386191	0.08875	-0.0227567	0.0847374	-0.230116	-0.0670189	0.705572	2.07514	-0.0290623	-0.263925	0.111791	0.662058	2.09279
1.57	0.0160551	-0.136453	0.00477407	1.53316	1.02812	-0.314054	0.277804	0.146199	-0.189193	0.432861	0.175387	-0.0868237	-0.0246239	0.124794	-0.317912	-0.0784874	1.14468	-0.314442	-0.108168	-0.0309114	-0.387651	0.101906	-0.0142686	0.0863155	-0.235484	-0.0705629	0.711077	2.07385	-0.0393477	-0.26233	0.114875	0.657975	2.09232
1.58	0.0170285	-0.13767	0.0097659	1.54311	1.02961	-0.314497	0.261985	0.147551	-0.191106	0.42615	0.183052	-0.0835069	-0.0246332	0.155577	-0.31533	-0.0628689	1.17328	-0.301242	-0.112286	-0.0309406	-0.389612	0.11225	-0.00398989	0.08782	-0.240798	-0.0732886	0.716036	2.07135	-0.0493176	-0.261903	0.11924	0.655374	2.09179
